<svg width="24" height="25" viewBox="0 0 24 25" fill="none" xmlns="http://www.w3.org/2000/svg">
<path d="M16.5197 5.71875L13.4197 3.31875C13.0197 2.91875 12.1197 2.71875 11.5197 2.71875H7.71973C6.51973 2.71875 5.21973 3.61875 4.91973 4.81875L2.51973 12.1187C2.01973 13.5187 2.91973 14.7188 4.41973 14.7188H8.41973C9.01973 14.7188 9.51973 15.2188 9.41973 15.9188L8.91973 19.1187C8.71973 20.0187 9.31973 21.0188 10.2197 21.3188C11.0197 21.6188 12.0197 21.2187 12.4197 20.6187L16.5197 14.5187" stroke="#FF1D1D" stroke-width="1.5" stroke-miterlimit="10"/>
<path d="M21.6201 5.71885V15.5188C21.6201 16.9188 21.0201 17.4188 19.6201 17.4188H18.6201C17.2201 17.4188 16.6201 16.9188 16.6201 15.5188V5.71885C16.6201 4.31885 17.2201 3.81885 18.6201 3.81885H19.6201C21.0201 3.81885 21.6201 4.31885 21.6201 5.71885Z" stroke="#FF1D1D" stroke-width="1.5" stroke-linecap="round" stroke-linejoin="round"/>
</svg>
