<svg width="234" height="35" viewBox="0 0 234 35" fill="none" xmlns="http://www.w3.org/2000/svg">
<g filter="url(#filter0_d_789_4172)">
<path d="M26.7247 9.73201C26.7418 9.98356 26.7418 10.2352 26.7418 10.4867C26.7418 18.1593 21.1739 27 10.9975 27C7.86232 27 4.94989 26.0476 2.5 24.3946C2.94545 24.4484 3.37371 24.4664 3.83629 24.4664C6.42319 24.4664 8.80458 23.55 10.7062 21.9867C8.27349 21.9328 6.23477 20.2617 5.53234 17.9617C5.87501 18.0156 6.21763 18.0515 6.57744 18.0515C7.07425 18.0515 7.57112 17.9796 8.03365 17.8539C5.49812 17.3148 3.5964 14.9789 3.5964 12.1578V12.086C4.33305 12.5172 5.18973 12.7867 6.09766 12.8226C4.60717 11.7804 3.63068 10.0015 3.63068 7.98902C3.63068 6.91092 3.90474 5.92264 4.38447 5.06013C7.10848 8.582 11.2031 10.882 15.7944 11.1336C15.7087 10.7023 15.6573 10.2531 15.6573 9.80391C15.6573 6.60544 18.1244 4 21.191 4C22.7843 4 24.2233 4.70078 25.2341 5.83281C26.4847 5.58126 27.684 5.09608 28.7462 4.43125C28.335 5.77894 27.4613 6.91097 26.3135 7.62967C27.4271 7.50395 28.5064 7.18044 29.5 6.73127C28.7463 7.88122 27.804 8.9054 26.7247 9.73201Z" fill="white"/>
</g>
<g filter="url(#filter1_d_789_4172)">
<path d="M95.4231 4.458L91.3486 27.3702C91.0412 28.9872 90.2396 29.3897 89.1004 28.6279L82.8923 23.173L79.8967 26.6083C79.5652 27.0036 79.2879 27.3342 78.649 27.3342L79.095 19.7951L90.6012 7.39748C91.1015 6.86564 90.4927 6.57098 89.8237 7.10281L75.5992 17.7827L69.4754 15.4972C68.1434 15.0013 68.1193 13.9089 69.7527 13.1471L93.7053 2.14378C94.8143 1.64788 95.7847 2.43845 95.4231 4.458Z" fill="white"/>
</g>
<g filter="url(#filter2_d_789_4172)">
<path d="M157.456 5.92344C154.931 3.39219 151.568 2 147.994 2C140.617 2 134.615 8.00268 134.615 15.3795C134.615 17.7359 135.229 20.0382 136.398 22.0692L134.5 29L141.594 27.1377C143.546 28.2045 145.746 28.765 147.988 28.765H147.994C155.365 28.765 161.5 22.7623 161.5 15.3855C161.5 11.8116 159.981 8.45469 157.456 5.92344ZM147.994 26.5109C145.993 26.5109 144.034 25.9746 142.329 24.9621L141.925 24.721L137.718 25.8239L138.839 21.7196L138.574 21.2978C137.459 19.5259 136.875 17.4828 136.875 15.3795C136.875 9.25022 141.865 4.26004 148 4.26004C150.971 4.26004 153.762 5.41719 155.859 7.52054C157.956 9.62388 159.246 12.4143 159.24 15.3855C159.24 21.5208 154.123 26.5109 147.994 26.5109ZM154.093 18.1819C153.762 18.0132 152.116 17.2056 151.809 17.0971C151.502 16.9826 151.279 16.9283 151.056 17.2658C150.833 17.6033 150.194 18.3507 149.995 18.5797C149.802 18.8027 149.603 18.8328 149.272 18.6641C147.307 17.6817 146.017 16.9103 144.721 14.6864C144.378 14.0958 145.065 14.1379 145.704 12.8603C145.812 12.6373 145.758 12.4444 145.674 12.2757C145.589 12.1069 144.92 10.4616 144.643 9.79263C144.372 9.14174 144.095 9.23214 143.89 9.22009C143.697 9.20804 143.474 9.20804 143.251 9.20804C143.028 9.20804 142.666 9.29241 142.359 9.62388C142.052 9.96138 141.19 10.769 141.19 12.4143C141.19 14.0596 142.389 15.6507 142.552 15.8737C142.721 16.0967 144.908 19.4717 148.265 20.9241C150.387 21.8402 151.218 21.9185 152.279 21.7618C152.924 21.6654 154.256 20.9542 154.533 20.1708C154.81 19.3873 154.81 18.7183 154.726 18.5797C154.648 18.429 154.425 18.3446 154.093 18.1819Z" fill="white"/>
</g>
<g filter="url(#filter3_d_789_4172)">
<path d="M214.003 8.57754C210.172 8.57754 207.082 11.6682 207.082 15.5C207.082 19.3318 210.172 22.4225 214.003 22.4225C217.834 22.4225 220.924 19.3318 220.924 15.5C220.924 11.6682 217.834 8.57754 214.003 8.57754ZM214.003 20.0005C211.527 20.0005 209.504 17.9822 209.504 15.5C209.504 13.0178 211.521 10.9995 214.003 10.9995C216.485 10.9995 218.503 13.0178 218.503 15.5C218.503 17.9822 216.479 20.0005 214.003 20.0005ZM222.821 8.29438C222.821 9.19207 222.098 9.90902 221.207 9.90902C220.31 9.90902 219.593 9.18604 219.593 8.29438C219.593 7.40271 220.316 6.67974 221.207 6.67974C222.098 6.67974 222.821 7.40271 222.821 8.29438ZM227.405 9.93311C227.303 7.77022 226.809 5.85435 225.225 4.27586C223.647 2.69737 221.731 2.20334 219.569 2.09489C217.34 1.96837 210.66 1.96837 208.431 2.09489C206.275 2.19731 204.36 2.69134 202.775 4.26983C201.191 5.84832 200.703 7.7642 200.595 9.92709C200.468 12.1563 200.468 18.8377 200.595 21.0669C200.697 23.2298 201.191 25.1457 202.775 26.7241C204.36 28.3026 206.269 28.7967 208.431 28.9051C210.66 29.0316 217.34 29.0316 219.569 28.9051C221.731 28.8027 223.647 28.3087 225.225 26.7241C226.803 25.1457 227.297 23.2298 227.405 21.0669C227.532 18.8377 227.532 12.1623 227.405 9.93311ZM224.526 23.4587C224.056 24.6396 223.147 25.5493 221.96 26.0253C220.183 26.7302 215.967 26.5675 214.003 26.5675C212.039 26.5675 207.817 26.7241 206.046 26.0253C204.865 25.5553 203.956 24.6456 203.48 23.4587C202.775 21.6814 202.938 17.4641 202.938 15.5C202.938 13.5359 202.781 9.31256 203.48 7.54128C203.95 6.36043 204.859 5.45069 206.046 4.97473C207.823 4.26983 212.039 4.4325 214.003 4.4325C215.967 4.4325 220.189 4.27586 221.96 4.97473C223.141 5.44466 224.05 6.3544 224.526 7.54128C225.231 9.31859 225.068 13.5359 225.068 15.5C225.068 17.4641 225.231 21.6874 224.526 23.4587Z" fill="white"/>
</g>
<defs>
<filter id="filter0_d_789_4172" x="0.5" y="2" width="35" height="31" filterUnits="userSpaceOnUse" color-interpolation-filters="sRGB">
<feFlood flood-opacity="0" result="BackgroundImageFix"/>
<feColorMatrix in="SourceAlpha" type="matrix" values="0 0 0 0 0 0 0 0 0 0 0 0 0 0 0 0 0 0 127 0" result="hardAlpha"/>
<feOffset dx="2" dy="2"/>
<feGaussianBlur stdDeviation="2"/>
<feComposite in2="hardAlpha" operator="out"/>
<feColorMatrix type="matrix" values="0 0 0 0 0.991667 0 0 0 0 0.971007 0 0 0 0 0.971007 0 0 0 0.25 0"/>
<feBlend mode="normal" in2="BackgroundImageFix" result="effect1_dropShadow_789_4172"/>
<feBlend mode="normal" in="SourceGraphic" in2="effect1_dropShadow_789_4172" result="shape"/>
</filter>
<filter id="filter1_d_789_4172" x="66.5" y="0" width="35" height="35" filterUnits="userSpaceOnUse" color-interpolation-filters="sRGB">
<feFlood flood-opacity="0" result="BackgroundImageFix"/>
<feColorMatrix in="SourceAlpha" type="matrix" values="0 0 0 0 0 0 0 0 0 0 0 0 0 0 0 0 0 0 127 0" result="hardAlpha"/>
<feOffset dx="2" dy="2"/>
<feGaussianBlur stdDeviation="2"/>
<feComposite in2="hardAlpha" operator="out"/>
<feColorMatrix type="matrix" values="0 0 0 0 0.975 0 0 0 0 0.975 0 0 0 0 0.975 0 0 0 0.25 0"/>
<feBlend mode="normal" in2="BackgroundImageFix" result="effect1_dropShadow_789_4172"/>
<feBlend mode="normal" in="SourceGraphic" in2="effect1_dropShadow_789_4172" result="shape"/>
</filter>
<filter id="filter2_d_789_4172" x="132.5" y="0" width="35" height="35" filterUnits="userSpaceOnUse" color-interpolation-filters="sRGB">
<feFlood flood-opacity="0" result="BackgroundImageFix"/>
<feColorMatrix in="SourceAlpha" type="matrix" values="0 0 0 0 0 0 0 0 0 0 0 0 0 0 0 0 0 0 127 0" result="hardAlpha"/>
<feOffset dx="2" dy="2"/>
<feGaussianBlur stdDeviation="2"/>
<feComposite in2="hardAlpha" operator="out"/>
<feColorMatrix type="matrix" values="0 0 0 0 1 0 0 0 0 0.9875 0 0 0 0 0.9875 0 0 0 0.25 0"/>
<feBlend mode="normal" in2="BackgroundImageFix" result="effect1_dropShadow_789_4172"/>
<feBlend mode="normal" in="SourceGraphic" in2="effect1_dropShadow_789_4172" result="shape"/>
</filter>
<filter id="filter3_d_789_4172" x="198.5" y="0" width="35" height="35" filterUnits="userSpaceOnUse" color-interpolation-filters="sRGB">
<feFlood flood-opacity="0" result="BackgroundImageFix"/>
<feColorMatrix in="SourceAlpha" type="matrix" values="0 0 0 0 0 0 0 0 0 0 0 0 0 0 0 0 0 0 127 0" result="hardAlpha"/>
<feOffset dx="2" dy="2"/>
<feGaussianBlur stdDeviation="2"/>
<feComposite in2="hardAlpha" operator="out"/>
<feColorMatrix type="matrix" values="0 0 0 0 0.975 0 0 0 0 0.975 0 0 0 0 0.975 0 0 0 0.25 0"/>
<feBlend mode="normal" in2="BackgroundImageFix" result="effect1_dropShadow_789_4172"/>
<feBlend mode="normal" in="SourceGraphic" in2="effect1_dropShadow_789_4172" result="shape"/>
</filter>
</defs>
</svg>
