<svg width="21" height="21" viewBox="0 0 21 21" fill="none" xmlns="http://www.w3.org/2000/svg">
<path d="M13.6327 10.5002C13.6327 12.2327 12.2327 13.6327 10.5002 13.6327C8.76768 13.6327 7.36768 12.2327 7.36768 10.5002C7.36768 8.76768 8.76768 7.36768 10.5002 7.36768C12.2327 7.36768 13.6327 8.76768 13.6327 10.5002Z" stroke="#313132" stroke-width="1.5" stroke-linecap="round" stroke-linejoin="round"/>
<path d="M10.4999 17.7361C13.5886 17.7361 16.4674 15.9161 18.4711 12.7661C19.2586 11.5324 19.2586 9.45863 18.4711 8.22488C16.4674 5.07488 13.5886 3.25488 10.4999 3.25488C7.41111 3.25488 4.53236 5.07488 2.52861 8.22488C1.74111 9.45863 1.74111 11.5324 2.52861 12.7661C4.53236 15.9161 7.41111 17.7361 10.4999 17.7361Z" stroke="#313132" stroke-width="1.5" stroke-linecap="round" stroke-linejoin="round"/>
</svg>
