<svg width="24" height="25" viewBox="0 0 24 25" fill="none" xmlns="http://www.w3.org/2000/svg">
<path d="M7.47998 18.4188L10.58 20.8188C10.98 21.2188 11.88 21.4188 12.48 21.4188H16.28C17.48 21.4188 18.78 20.5188 19.08 19.3188L21.48 12.0188C21.98 10.6188 21.08 9.41882 19.58 9.41882H15.58C14.98 9.41882 14.48 8.91882 14.58 8.21882L15.08 5.01882C15.28 4.11882 14.68 3.11882 13.78 2.81882C12.98 2.51882 11.98 2.91882 11.58 3.51882L7.47998 9.61882" stroke="#04B801" stroke-width="1.5" stroke-miterlimit="10"/>
<path d="M2.37988 18.4188V8.61875C2.37988 7.21875 2.97988 6.71875 4.37988 6.71875H5.37988C6.77988 6.71875 7.37988 7.21875 7.37988 8.61875V18.4188C7.37988 19.8188 6.77988 20.3188 5.37988 20.3188H4.37988C2.97988 20.3188 2.37988 19.8188 2.37988 18.4188Z" stroke="#04B801" stroke-width="1.5" stroke-linecap="round" stroke-linejoin="round"/>
</svg>
