<svg width="181" height="65" viewBox="0 0 181 65" fill="none" xmlns="http://www.w3.org/2000/svg">
<path d="M32.1221 33.6843C32.3252 33.7155 32.4268 33.8171 32.4268 33.989V35.2077C31.3408 37.0359 30.0713 37.9499 28.6182 37.9499H17.6494C17.6494 41.9187 17.0908 44.3054 15.9736 45.1101C15.1455 46.1257 13.7744 46.6335 11.8604 46.6335H4.09082C3.8877 46.6335 3.78613 46.532 3.78613 46.3288V40.8445C3.78613 37.907 4.9541 35.9265 7.29004 34.903C8.44629 34.6999 9.25879 34.5984 9.72754 34.5984H11.8604C12.0635 34.6296 12.165 34.7312 12.165 34.903V37.3405C12.165 37.5437 12.0713 37.6179 11.8838 37.5632L11.6963 37.5398C11.3604 37.4929 11.1104 37.4773 10.9463 37.4929C8.91504 37.4929 7.59473 38.0515 6.98535 39.1687L6.68066 40.2351V43.282C6.71191 43.4851 6.81348 43.5866 6.98535 43.5866H12.3174C13.8408 43.2976 14.6025 42.1804 14.6025 40.2351V35.6648C14.6338 35.4616 14.7354 35.3601 14.9072 35.3601H28.9229C29.2432 35.3601 29.5479 34.8015 29.8369 33.6843H32.1221ZM33.4346 24.2507H35.7197C35.9229 24.282 36.0244 24.3835 36.0244 24.5554V32.782C36.3916 34.4538 37.5752 35.278 39.5752 35.2546L39.5869 37.9616C39.5791 37.9616 39.4736 37.9616 39.2705 37.9616H38.0049C36.4189 37.9616 34.8955 36.946 33.4346 34.9148C33.2314 34.2116 33.1299 33.6023 33.1299 33.0866V24.5554C33.1611 24.3523 33.2627 24.2507 33.4346 24.2507ZM42.2236 30.1921H44.5088C44.7119 30.2234 44.8135 30.3249 44.8135 30.4968V34.153C44.7588 34.8718 44.9619 35.2273 45.4229 35.2195H46.9463C47.126 35.2195 47.2197 35.2195 47.2275 35.2195V37.9616C47.2432 37.9616 47.1494 37.9616 46.9463 37.9616H46.4893C45.3877 37.9616 44.3721 37.657 43.4424 37.0476H43.29C42.3604 37.657 41.3447 37.9616 40.2432 37.9616H39.7861C39.583 37.9616 39.4814 37.9616 39.4814 37.9616V35.2429C39.5127 35.2273 39.6143 35.2195 39.7861 35.2195H41.3096C41.7236 35.2195 41.9268 34.7624 41.9189 33.8484V30.4968C41.9502 30.2937 42.0518 30.1921 42.2236 30.1921ZM41.0049 40.9616H43.1377C43.3408 40.9929 43.4424 41.0945 43.4424 41.2663V43.3991C43.4424 43.6023 43.3408 43.7038 43.1377 43.7038H41.0049C40.8018 43.7038 40.7002 43.6023 40.7002 43.3991V41.2663C40.7314 41.0632 40.833 40.9616 41.0049 40.9616ZM50.6611 24.2507H52.9463C53.1494 24.282 53.251 24.3835 53.251 24.5554V34.3054C53.251 36.2116 51.9307 37.4304 49.29 37.9616H47.4033C47.2002 37.9616 47.0947 37.9616 47.0869 37.9616L47.1338 35.2195C47.1416 35.2195 47.2314 35.2195 47.4033 35.2195H49.7471C50.1533 35.0866 50.3564 34.6296 50.3564 33.8484V24.5554C50.3877 24.3523 50.4893 24.2507 50.6611 24.2507ZM66.3643 25.7741H68.8018C69.0049 25.8054 69.1064 25.907 69.1064 26.0788V28.5163C69.1064 28.7195 69.0049 28.821 68.8018 28.821H66.9736C64.8408 28.821 63.7744 30.1413 63.7744 32.782V34.153L63.9268 34.9148H69.2588C70.8838 34.4538 71.6963 33.489 71.6963 32.0202V28.6687C71.7275 28.4655 71.8291 28.364 72.001 28.364H74.2861C74.4893 28.3952 74.5908 28.4968 74.5908 28.6687C74.5908 33.3562 73.9307 36.0476 72.6104 36.7429C71.4932 37.5554 70.3252 37.9616 69.1064 37.9616H61.1846C60.9814 37.9616 60.8799 37.8601 60.8799 37.657V31.8679C61.2549 27.8054 63.083 25.7741 66.3643 25.7741ZM66.9971 29.7937H69.1299C69.333 29.8249 69.4346 29.9265 69.4346 30.0984V32.2312C69.4346 32.4343 69.333 32.5359 69.1299 32.5359H66.9971C66.7939 32.5359 66.6924 32.4343 66.6924 32.2312V30.0984C66.7236 29.8952 66.8252 29.7937 66.9971 29.7937ZM76.4658 24.2507H78.751C78.9541 24.282 79.0557 24.3835 79.0557 24.5554V37.657C79.0557 37.8601 78.9541 37.9616 78.751 37.9616H76.4658C76.2627 37.9616 76.1611 37.8601 76.1611 37.657V24.5554C76.1924 24.3523 76.2939 24.2507 76.4658 24.2507ZM83.0752 30.1804H85.3604C85.5635 30.2116 85.665 30.3132 85.665 30.4851V35.2077H88.1143C88.1143 35.239 88.1143 35.3405 88.1143 35.5124V37.9499C88.1143 37.9499 87.2979 37.9499 85.665 37.9499V43.5866C85.665 43.7898 85.5635 43.8913 85.3604 43.8913H83.0752C82.8721 43.8913 82.7705 43.7898 82.7705 43.5866V30.4851C82.8018 30.282 82.9033 30.1804 83.0752 30.1804ZM90.7041 30.1921H92.9893C93.1924 30.2234 93.2939 30.3249 93.2939 30.4968V33.8484C93.3096 35.5905 92.3447 36.8601 90.3994 37.657C90.0244 37.821 89.6182 37.9226 89.1807 37.9616H88.2666C88.0635 37.9616 87.958 37.9616 87.9502 37.9616L87.9736 35.2312C87.9971 35.2234 88.0947 35.2195 88.2666 35.2195H89.79C90.1885 35.1804 90.3916 34.7741 90.3994 34.0007V30.4968C90.4307 30.2937 90.5322 30.1921 90.7041 30.1921ZM86.626 39.532H92.8486C93.0518 39.5632 93.1533 39.6648 93.1533 39.8366V41.9695C93.1533 42.1726 93.0518 42.2741 92.8486 42.2741H86.626C86.4229 42.2741 86.3213 42.1726 86.3213 41.9695V39.8366C86.3525 39.6335 86.4541 39.532 86.626 39.532ZM95.2861 24.2507H97.5713C97.7744 24.282 97.876 24.3835 97.876 24.5554V37.657C97.876 37.8601 97.7744 37.9616 97.5713 37.9616H95.2861C95.083 37.9616 94.9814 37.8601 94.9814 37.657V24.5554C95.0127 24.3523 95.1143 24.2507 95.2861 24.2507Z" fill="#C1121F"/>
<g clip-path="url(#clip0_789_3630)">
<path fill-rule="evenodd" clip-rule="evenodd" d="M139.527 1C135.921 1 132.462 2.42102 129.912 4.95046L117.606 17.1558V22.7426C117.606 26.6897 119.316 30.2408 122.04 32.7073C119.316 35.1738 117.606 38.7249 117.606 42.672V48.2588L129.912 60.4642C132.462 62.9937 135.921 64.4146 139.527 64.4146C143.507 64.4146 147.087 62.7192 149.574 60.0168C152.06 62.7192 155.641 64.4146 159.62 64.4146C163.227 64.4146 166.685 62.9937 169.235 60.4642L181.541 48.2588V42.672C181.541 38.7249 179.832 35.1738 177.107 32.7073C179.832 30.2408 181.541 26.6897 181.541 22.7426V17.1558L169.235 4.95046C166.685 2.42102 163.227 1 159.62 1C155.641 1 152.06 2.69545 149.574 5.39782C147.087 2.69545 143.507 1 139.527 1ZM158.778 32.7073C158.625 32.5686 158.475 32.4261 158.327 32.2799L149.574 23.5975L140.82 32.2799C140.673 32.4261 140.522 32.5686 140.369 32.7073C140.522 32.846 140.673 32.9885 140.82 33.1347L149.574 41.8171L158.327 33.1347C158.475 32.9885 158.625 32.846 158.778 32.7073ZM153.126 48.2588V50.927C153.126 54.4845 156.033 57.3686 159.62 57.3686C161.342 57.3686 162.994 56.6899 164.212 55.4819L174.437 45.3401V42.672C174.437 39.1144 171.529 36.2303 167.943 36.2303C166.22 36.2303 164.568 36.909 163.35 38.117L153.126 48.2588ZM146.022 48.2588L135.797 38.117C134.579 36.909 132.927 36.2303 131.205 36.2303C127.618 36.2303 124.71 39.1144 124.71 42.672V45.3401L134.935 55.4819C136.153 56.6899 137.805 57.3686 139.527 57.3686C143.114 57.3686 146.022 54.4845 146.022 50.927V48.2588ZM146.022 14.4877V17.1558L135.797 27.2976C134.579 28.5056 132.927 29.1843 131.205 29.1843C127.618 29.1843 124.71 26.3002 124.71 22.7426V20.0745L134.935 9.93277C136.153 8.72474 137.805 8.04607 139.527 8.04607C143.114 8.04607 146.022 10.9301 146.022 14.4877ZM163.35 27.2976L153.126 17.1558V14.4877C153.126 10.9301 156.033 8.04607 159.62 8.04607C161.342 8.04607 162.994 8.72474 164.212 9.93277L174.437 20.0745V22.7426C174.437 26.3002 171.529 29.1843 167.943 29.1843C166.22 29.1843 164.568 28.5056 163.35 27.2976Z" fill="#C1121F"/>
</g>
<defs>
<clipPath id="clip0_789_3630">
<rect width="63" height="65" fill="white" transform="translate(117.606)"/>
</clipPath>
</defs>
</svg>
